<svg width="77" height="9" viewBox="0 0 77 9" fill="none" xmlns="http://www.w3.org/2000/svg">
<path d="M6.828 5.912C6.708 6.272 6.468 6.636 6.108 7.004C5.756 7.364 5.308 7.664 4.764 7.904C4.228 8.136 3.64 8.252 3 8.252C2.024 8.252 1.308 8.016 0.852 7.544C0.396 7.064 0.168 6.452 0.168 5.708C0.168 4.652 0.404 3.696 0.876 2.84C1.348 1.976 1.984 1.3 2.784 0.812C3.584 0.316 4.448 0.0679998 5.376 0.0679998C5.744 0.0679998 6.08 0.152 6.384 0.319999C6.688 0.488 6.928 0.732 7.104 1.052C7.28 1.364 7.368 1.732 7.368 2.156C7.368 2.396 7.276 2.6 7.092 2.768C6.916 2.936 6.676 3.02 6.372 3.02C6.132 3.02 5.968 2.956 5.88 2.828C5.8 2.7 5.76 2.536 5.76 2.336L5.772 1.952C5.772 1.808 5.692 1.668 5.532 1.532C5.372 1.396 5.224 1.328 5.088 1.328C4.64 1.328 4.148 1.532 3.612 1.94C3.076 2.34 2.624 2.884 2.256 3.572C1.888 4.252 1.704 4.992 1.704 5.792C1.704 6.16 1.848 6.46 2.136 6.692C2.424 6.924 2.788 7.04 3.228 7.04C3.372 7.04 3.56 6.992 3.792 6.896C4.024 6.8 4.236 6.68 4.428 6.536C4.628 6.392 4.76 6.252 4.824 6.116C4.92 5.916 5.056 5.692 5.232 5.444C5.408 5.196 5.584 5.072 5.76 5.072C6.168 5.072 6.444 5.16 6.588 5.336C6.74 5.512 6.82 5.704 6.828 5.912ZM7.84828 1.4C7.84828 1.288 7.88028 1.2 7.94428 1.136C8.01628 1.064 8.11228 1 8.23228 0.944C9.40028 0.336 10.6163 0.0319996 11.8803 0.0319996C12.3683 0.0319996 12.8003 0.128 13.1763 0.319999C13.5603 0.503999 13.8563 0.772 14.0643 1.124C14.2803 1.468 14.3883 1.868 14.3883 2.324C14.3883 3.084 14.1883 3.724 13.7883 4.244C13.3883 4.764 12.8643 5.152 12.2163 5.408C11.5763 5.656 10.8843 5.78 10.1403 5.78C9.91628 5.78 9.75228 5.776 9.64828 5.768C9.44828 6.504 9.31628 7.008 9.25228 7.28C9.18828 7.56 9.08828 7.776 8.95228 7.928C8.82428 8.08 8.61228 8.156 8.31628 8.156C8.06828 8.156 7.88428 8.112 7.76428 8.024C7.65228 7.944 7.59628 7.804 7.59628 7.604C7.59628 7.516 7.60828 7.432 7.63228 7.352L9.08428 1.748C8.66828 1.868 8.35228 2.032 8.13628 2.24C8.04828 2.144 7.97628 2.02 7.92028 1.868C7.87228 1.708 7.84828 1.552 7.84828 1.4ZM9.90028 4.652C9.99628 4.66 10.1323 4.664 10.3083 4.664C10.7403 4.664 11.1643 4.58 11.5803 4.412C11.9963 4.236 12.3403 3.976 12.6123 3.632C12.8843 3.288 13.0203 2.872 13.0203 2.384C13.0203 2.032 12.8963 1.756 12.6483 1.556C12.4003 1.356 12.0523 1.256 11.6043 1.256C11.3643 1.256 11.0563 1.312 10.6803 1.424C10.3123 2.896 10.0523 3.972 9.90028 4.652ZM22.0644 5.108C22.3364 5.54 22.6644 6.012 23.0484 6.524C23.4324 7.036 23.7524 7.408 24.0084 7.64C24.0404 7.672 24.0964 7.792 24.1764 8C24.2644 8.208 24.3124 8.336 24.3204 8.384C24.3124 8.464 24.2684 8.544 24.1884 8.624C24.1084 8.704 23.9724 8.744 23.7804 8.744C23.4524 8.744 23.2564 8.724 23.1924 8.684C22.8084 8.412 22.3444 7.928 21.8004 7.232C21.2644 6.528 20.8684 5.884 20.6124 5.3H20.4324C20.2084 5.3 20.0444 5.296 19.9404 5.288L19.4244 7.388C19.3604 7.652 19.2724 7.848 19.1604 7.976C19.0484 8.096 18.8404 8.156 18.5364 8.156C18.2884 8.156 18.1044 8.112 17.9844 8.024C17.8724 7.944 17.8124 7.804 17.8044 7.604C17.8044 7.516 17.8164 7.432 17.8404 7.352L19.2204 1.556C19.2124 1.484 19.1524 1.376 19.0404 1.232C19.0324 1.216 19.0004 1.168 18.9444 1.088C18.8884 1 18.8564 0.916 18.8484 0.836C18.8644 0.604 19.0124 0.42 19.2924 0.284C20.0364 0.164 20.7084 0.103999 21.3084 0.103999C22.0284 0.103999 22.6244 0.204 23.0964 0.404C23.5764 0.596 23.9284 0.856 24.1524 1.184C24.3844 1.504 24.5004 1.864 24.5004 2.264C24.5004 2.984 24.2844 3.588 23.8524 4.076C23.4204 4.556 22.8244 4.9 22.0644 5.108ZM20.2284 3.968C20.3244 3.976 20.4604 3.98 20.6364 3.98C21.0524 3.98 21.4324 3.912 21.7764 3.776C22.1204 3.64 22.3924 3.452 22.5924 3.212C22.8004 2.964 22.9044 2.684 22.9044 2.372C22.9044 2.036 22.7684 1.784 22.4964 1.616C22.2244 1.448 21.8644 1.364 21.4164 1.364C21.2164 1.364 21.0044 1.384 20.7804 1.424C20.7324 1.688 20.6324 2.164 20.4804 2.852L20.2284 3.968ZM27.2209 8.252C26.4369 8.252 25.8649 8.096 25.5049 7.784C25.1449 7.472 24.9649 7.056 24.9649 6.536C24.9649 5.776 25.1529 5.072 25.5289 4.424C25.9129 3.776 26.4209 3.264 27.0529 2.888C27.6929 2.504 28.3809 2.312 29.1169 2.312C29.5649 2.312 29.9409 2.44 30.2449 2.696C30.5489 2.944 30.7009 3.312 30.7009 3.8C30.7009 4.08 30.6089 4.312 30.4249 4.496C30.2489 4.672 29.9929 4.832 29.6569 4.976C29.3209 5.112 28.7769 5.308 28.0249 5.564C27.3449 5.788 26.7929 5.976 26.3689 6.128C26.3369 6.248 26.3209 6.372 26.3209 6.5C26.3209 6.724 26.4129 6.896 26.5969 7.016C26.7889 7.136 27.0569 7.196 27.4009 7.196C27.6169 7.196 27.8649 7.152 28.1449 7.064C28.4249 6.976 28.6009 6.864 28.6729 6.728C28.9449 6.232 29.1929 5.984 29.4169 5.984C29.7449 5.984 29.9649 6.048 30.0769 6.176C30.1969 6.296 30.2609 6.432 30.2689 6.584C30.1729 6.84 29.9849 7.1 29.7049 7.364C29.4249 7.62 29.0689 7.832 28.6369 8C28.2049 8.168 27.7329 8.252 27.2209 8.252ZM26.7049 5.024C27.4969 4.768 28.1489 4.532 28.6609 4.316C29.1729 4.092 29.4289 3.872 29.4289 3.656C29.4289 3.56 29.3769 3.484 29.2729 3.428C29.1689 3.364 29.0569 3.332 28.9369 3.332C28.6969 3.332 28.4209 3.424 28.1089 3.608C27.8049 3.792 27.5209 4.016 27.2569 4.28C26.9929 4.544 26.8089 4.792 26.7049 5.024ZM35.1609 3.356C35.0649 3.308 34.9449 3.284 34.8009 3.284C34.4409 3.284 34.0809 3.356 33.7209 3.5C33.3609 3.644 33.1809 3.828 33.1809 4.052C33.1809 4.212 33.2529 4.34 33.3969 4.436C33.5409 4.532 33.7689 4.64 34.0809 4.76C34.4169 4.896 34.6889 5.024 34.8969 5.144C35.1049 5.264 35.2849 5.44 35.4369 5.672C35.5969 5.896 35.6769 6.184 35.6769 6.536C35.6769 7.112 35.4369 7.556 34.9569 7.868C34.4849 8.172 33.8489 8.324 33.0489 8.324C32.6569 8.324 32.2929 8.264 31.9569 8.144C31.6209 8.024 31.3529 7.872 31.1529 7.688C30.9609 7.496 30.8569 7.308 30.8409 7.124C30.8409 6.932 30.9249 6.776 31.0929 6.656C31.2609 6.528 31.4969 6.444 31.8009 6.404C31.8089 6.564 31.8929 6.716 32.0529 6.86C32.2129 6.996 32.4009 7.108 32.6169 7.196C32.8409 7.276 33.0329 7.316 33.1929 7.316C33.4649 7.316 33.7129 7.244 33.9369 7.1C34.1609 6.948 34.2729 6.772 34.2729 6.572C34.2729 6.204 33.9169 5.912 33.2049 5.696C32.7489 5.56 32.3969 5.344 32.1489 5.048C31.9089 4.752 31.7889 4.44 31.7889 4.112C31.7889 3.464 32.0809 3 32.6649 2.72C33.2569 2.432 34.0089 2.288 34.9209 2.288C35.4329 2.288 35.8289 2.348 36.1089 2.468C36.3889 2.588 36.5289 2.796 36.5289 3.092C36.5289 3.292 36.4529 3.468 36.3009 3.62C36.1569 3.772 35.9489 3.848 35.6769 3.848C35.4369 3.848 35.2809 3.832 35.2089 3.8C35.1449 3.76 35.1089 3.696 35.1009 3.608C35.1009 3.528 35.1209 3.444 35.1609 3.356ZM38.4845 6.656C38.4845 6.84 38.5165 6.968 38.5805 7.04C38.6445 7.112 38.7645 7.148 38.9405 7.148C39.1725 7.148 39.3645 7.1 39.5165 7.004C39.6765 6.9 39.8685 6.74 40.0925 6.524C40.1565 6.46 40.2285 6.428 40.3085 6.428C40.4045 6.428 40.4805 6.5 40.5365 6.644C40.5925 6.78 40.6205 6.92 40.6205 7.064C40.6205 7.264 40.5405 7.46 40.3805 7.652C40.2205 7.844 39.9885 8 39.6845 8.12C39.3805 8.24 39.0245 8.3 38.6165 8.3C38.0725 8.3 37.6845 8.176 37.4525 7.928C37.2285 7.68 37.1165 7.3 37.1165 6.788C37.1165 6.716 37.1525 6.528 37.2245 6.224C37.2965 5.92 37.3885 5.556 37.5005 5.132L37.8365 3.764L37.1045 3.824C37.0085 3.824 36.9365 3.788 36.8885 3.716C36.8405 3.644 36.8165 3.556 36.8165 3.452C36.8165 3.252 36.8885 3.052 37.0325 2.852C37.0485 2.828 37.1285 2.804 37.2725 2.78C37.4165 2.756 37.5925 2.732 37.8005 2.708L38.1245 2.672L38.4005 1.436C38.4805 1.228 38.6005 1.068 38.7605 0.956C38.9285 0.835999 39.0845 0.775999 39.2285 0.775999C39.3885 0.775999 39.5245 0.823999 39.6365 0.92C39.7485 1.016 39.8085 1.128 39.8165 1.256L39.5165 2.54C39.8285 2.5 40.1165 2.468 40.3805 2.444C40.6525 2.412 40.8645 2.396 41.0165 2.396C41.3205 2.396 41.4725 2.572 41.4725 2.924C41.4725 3.06 41.4125 3.184 41.2925 3.296C41.1805 3.4 41.0565 3.464 40.9205 3.488L39.2405 3.656L38.4845 6.656ZM46.7348 7.796C46.6788 7.94 46.5468 8.036 46.3388 8.084C46.1388 8.14 45.9628 8.168 45.8108 8.168C45.6668 8.168 45.5708 8.132 45.5228 8.06C45.4828 7.996 45.4468 7.896 45.4148 7.76C45.3828 7.624 45.3628 7.532 45.3548 7.484C45.0108 7.716 44.6588 7.892 44.2988 8.012C43.9468 8.14 43.6508 8.204 43.4108 8.204C43.2028 8.204 42.9668 8.136 42.7028 8C42.4468 7.864 42.2268 7.68 42.0428 7.448C41.8588 7.216 41.7668 6.96 41.7668 6.68C41.7668 6.232 41.9148 5.66 42.2108 4.964C42.5068 4.268 42.9228 3.66 43.4588 3.14C44.0028 2.62 44.6348 2.36 45.3548 2.36C45.9868 2.36 46.5508 2.46 47.0468 2.66C47.5428 2.86 47.7908 3.144 47.7908 3.512C47.5668 3.928 47.3228 4.552 47.0588 5.384C46.8028 6.216 46.6748 6.832 46.6748 7.232C46.6748 7.496 46.6948 7.684 46.7348 7.796ZM45.3788 6.476C45.4428 6.124 45.5508 5.708 45.7028 5.228C45.8628 4.74 46.0748 4.252 46.3388 3.764C46.2988 3.604 46.1708 3.5 45.9548 3.452C45.7468 3.396 45.5588 3.368 45.3908 3.368C45.0948 3.368 44.7748 3.568 44.4308 3.968C44.0868 4.368 43.7908 4.836 43.5428 5.372C43.3028 5.9 43.1828 6.328 43.1828 6.656C43.1828 6.816 43.2268 6.932 43.3148 7.004C43.4028 7.068 43.5148 7.1 43.6508 7.1C43.8348 7.1 44.1268 7.032 44.5268 6.896C44.9348 6.752 45.2188 6.612 45.3788 6.476ZM52.7702 7.724C52.7382 7.86 52.6662 7.952 52.5542 8C52.4502 8.056 52.3062 8.084 52.1222 8.084C51.5622 8.084 51.2822 7.96 51.2822 7.712L51.7862 6.32C51.4582 6.984 51.0742 7.472 50.6342 7.784C50.1942 8.096 49.7822 8.252 49.3982 8.252C48.9022 8.252 48.5502 8.1 48.3422 7.796C48.1422 7.484 48.0422 7.032 48.0422 6.44C48.0422 6.32 48.0622 6.172 48.1022 5.996L48.8582 2.792C48.8982 2.616 48.9782 2.488 49.0982 2.408C49.2182 2.32 49.4182 2.276 49.6982 2.276C50.1222 2.276 50.3342 2.392 50.3342 2.624C50.3342 2.688 50.3102 2.84 50.2622 3.08L49.5182 6.296C49.4702 6.44 49.4462 6.572 49.4462 6.692C49.4462 6.996 49.5662 7.148 49.8062 7.148C50.0302 7.148 50.3342 6.896 50.7182 6.392C51.1022 5.888 51.4662 5.296 51.8102 4.616C52.1622 3.936 52.3862 3.376 52.4822 2.936C52.5222 2.76 52.5622 2.632 52.6022 2.552C52.6502 2.464 52.7302 2.4 52.8422 2.36C52.9542 2.312 53.1222 2.288 53.3462 2.288C53.7782 2.288 53.9942 2.416 53.9942 2.672C53.9942 2.728 53.9702 2.828 53.9222 2.972C53.7942 3.58 53.5942 4.384 53.3222 5.384C53.0182 6.608 52.8342 7.388 52.7702 7.724ZM55.9398 7.544C55.9318 7.6 55.9158 7.696 55.8918 7.832C55.8758 7.968 55.8158 8.064 55.7118 8.12C55.6158 8.176 55.4518 8.204 55.2198 8.204C54.9558 8.204 54.7598 8.176 54.6318 8.12C54.5038 8.064 54.4358 7.944 54.4278 7.76C54.4918 7.44 54.5958 6.872 54.7398 6.056C54.7878 5.784 54.8638 5.376 54.9678 4.832C55.0718 4.28 55.1518 3.88 55.2078 3.632C55.2878 3.064 55.3998 2.692 55.5438 2.516C55.6878 2.332 55.8638 2.24 56.0718 2.24C56.3518 2.24 56.5358 2.28 56.6238 2.36C56.7198 2.44 56.7718 2.544 56.7798 2.672L56.6838 3.38C56.9238 3.068 57.2078 2.812 57.5358 2.612C57.8638 2.404 58.1598 2.3 58.4238 2.3C58.7758 2.3 59.0518 2.364 59.2518 2.492C59.4518 2.612 59.5518 2.768 59.5518 2.96C59.5518 3.104 59.4638 3.216 59.2878 3.296C59.1198 3.376 58.8958 3.428 58.6158 3.452C58.1758 3.492 57.7398 3.68 57.3078 4.016C56.8758 4.352 56.5638 4.748 56.3718 5.204L55.9398 7.544ZM63.9217 7.376C63.9377 7.584 63.9657 7.772 64.0057 7.94C63.9897 7.988 63.9177 8.036 63.7897 8.084C63.6697 8.132 63.5657 8.156 63.4777 8.156C63.1897 8.156 62.9817 8.112 62.8537 8.024C62.7337 7.944 62.6737 7.82 62.6737 7.652C62.6737 7.492 62.6897 7.332 62.7217 7.172C62.5457 7.412 62.2857 7.612 61.9417 7.772C61.6057 7.924 61.3337 8 61.1257 8C60.5897 8 60.1417 7.844 59.7817 7.532C59.4297 7.22 59.2537 6.72 59.2537 6.032C59.2537 5.384 59.4057 4.776 59.7097 4.208C60.0217 3.632 60.4497 3.172 60.9937 2.828C61.5377 2.476 62.1417 2.3 62.8057 2.3C62.9337 2.3 63.1017 2.336 63.3097 2.408C63.5177 2.472 63.7257 2.588 63.9337 2.756C64.1497 2.916 64.3297 3.124 64.4737 3.38C64.5377 3.38 64.6137 3.412 64.7017 3.476C64.7897 3.54 64.8337 3.604 64.8337 3.668C64.8337 3.74 64.8217 3.812 64.7977 3.884L63.9217 7.376ZM63.3817 4.016C63.3337 3.84 63.2377 3.692 63.0937 3.572C62.9577 3.452 62.8337 3.392 62.7217 3.392C62.3537 3.392 62.0057 3.524 61.6777 3.788C61.3577 4.044 61.0977 4.364 60.8977 4.748C60.6977 5.132 60.5977 5.496 60.5977 5.84C60.5977 6.176 60.6377 6.452 60.7177 6.668C60.7977 6.884 60.9537 6.992 61.1857 6.992C61.3857 6.992 61.6137 6.932 61.8697 6.812C62.1337 6.692 62.3657 6.532 62.5657 6.332C62.7737 6.124 62.9097 5.908 62.9737 5.684L63.3817 4.016ZM66.1171 2.516C66.0931 2.492 66.0811 2.464 66.0811 2.432C66.0811 2.352 66.1691 2.288 66.3451 2.24C66.5211 2.184 66.7651 2.156 67.0771 2.156C67.3651 2.156 67.5771 2.232 67.7131 2.384C67.8491 2.528 67.9291 2.704 67.9531 2.912L67.7371 3.692C67.9051 3.46 68.1411 3.24 68.4451 3.032C68.7491 2.816 69.0571 2.644 69.3691 2.516C69.6811 2.388 69.9371 2.324 70.1371 2.324C70.5611 2.324 70.8691 2.404 71.0611 2.564C71.2531 2.716 71.3491 2.96 71.3491 3.296C70.8771 4.528 70.5651 5.856 70.4131 7.28L70.5811 7.868C70.4851 8.052 70.3491 8.196 70.1731 8.3C70.0051 8.412 69.7571 8.468 69.4291 8.468C69.2371 8.468 69.0971 8.404 69.0091 8.276C68.9211 8.148 68.8771 7.988 68.8771 7.796C68.8771 7.26 68.9531 6.672 69.1051 6.032C69.2651 5.384 69.4491 4.724 69.6571 4.052C69.7371 3.796 69.7771 3.664 69.7771 3.656C69.7771 3.544 69.7131 3.488 69.5851 3.488C69.4091 3.488 69.1411 3.612 68.7811 3.86C68.4291 4.108 68.0651 4.528 67.6891 5.12C67.3131 5.704 67.0091 6.472 66.7771 7.424C66.7611 7.472 66.7411 7.56 66.7171 7.688C66.6931 7.816 66.6291 7.908 66.5251 7.964C66.4211 8.012 66.2531 8.036 66.0211 8.036C65.7571 8.036 65.5611 8.008 65.4331 7.952C65.3131 7.896 65.2531 7.776 65.2531 7.592C65.2771 7.48 65.3131 7.344 65.3611 7.184C65.8251 5.32 66.1811 3.884 66.4291 2.876L66.1171 2.516ZM73.5938 6.656C73.5938 6.84 73.6258 6.968 73.6898 7.04C73.7538 7.112 73.8738 7.148 74.0498 7.148C74.2818 7.148 74.4738 7.1 74.6258 7.004C74.7858 6.9 74.9778 6.74 75.2018 6.524C75.2658 6.46 75.3378 6.428 75.4178 6.428C75.5138 6.428 75.5898 6.5 75.6458 6.644C75.7018 6.78 75.7298 6.92 75.7298 7.064C75.7298 7.264 75.6498 7.46 75.4898 7.652C75.3298 7.844 75.0978 8 74.7938 8.12C74.4898 8.24 74.1338 8.3 73.7258 8.3C73.1818 8.3 72.7938 8.176 72.5618 7.928C72.3378 7.68 72.2258 7.3 72.2258 6.788C72.2258 6.716 72.2618 6.528 72.3338 6.224C72.4058 5.92 72.4978 5.556 72.6098 5.132L72.9458 3.764L72.2138 3.824C72.1178 3.824 72.0458 3.788 71.9978 3.716C71.9498 3.644 71.9258 3.556 71.9258 3.452C71.9258 3.252 71.9978 3.052 72.1418 2.852C72.1578 2.828 72.2378 2.804 72.3818 2.78C72.5258 2.756 72.7018 2.732 72.9098 2.708L73.2338 2.672L73.5098 1.436C73.5898 1.228 73.7098 1.068 73.8698 0.956C74.0378 0.835999 74.1938 0.775999 74.3378 0.775999C74.4978 0.775999 74.6338 0.823999 74.7458 0.92C74.8578 1.016 74.9178 1.128 74.9258 1.256L74.6258 2.54C74.9378 2.5 75.2258 2.468 75.4898 2.444C75.7618 2.412 75.9738 2.396 76.1258 2.396C76.4298 2.396 76.5818 2.572 76.5818 2.924C76.5818 3.06 76.5218 3.184 76.4018 3.296C76.2898 3.4 76.1658 3.464 76.0298 3.488L74.3498 3.656L73.5938 6.656Z" fill="black"/>
</svg>
